<?xml version="1.0" encoding="UTF-8" standalone="no"?>
<!-- Generator: Adobe Illustrator 16.0.0, SVG Export Plug-In . SVG Version: 6.00 Build 0)  -->

<svg
   xmlns:dc="http://purl.org/dc/elements/1.1/"
   xmlns:cc="http://creativecommons.org/ns#"
   xmlns:rdf="http://www.w3.org/1999/02/22-rdf-syntax-ns#"
   xmlns:svg="http://www.w3.org/2000/svg"
   xmlns="http://www.w3.org/2000/svg"
   xmlns:sodipodi="http://sodipodi.sourceforge.net/DTD/sodipodi-0.dtd"
   xmlns:inkscape="http://www.inkscape.org/namespaces/inkscape"
   version="1.1"
   id="Capa_1"
   x="0px"
   y="0px"
   width="444.819px"
   height="444.819px"
   viewBox="0 0 444.819 444.819"
   style="enable-background:new 0 0 444.819 444.819;"
   xml:space="preserve"
   sodipodi:docname="arrow-w.svg"
   inkscape:version="0.92.4 (5da689c313, 2019-01-14)"><metadata
   id="metadata41"><rdf:RDF><cc:Work
       rdf:about=""><dc:format>image/svg+xml</dc:format><dc:type
         rdf:resource="http://purl.org/dc/dcmitype/StillImage" /><dc:title></dc:title></cc:Work></rdf:RDF></metadata><defs
   id="defs39" /><sodipodi:namedview
   pagecolor="#ffffff"
   bordercolor="#666666"
   borderopacity="1"
   objecttolerance="10"
   gridtolerance="10"
   guidetolerance="10"
   inkscape:pageopacity="0"
   inkscape:pageshadow="2"
   inkscape:window-width="1600"
   inkscape:window-height="842"
   id="namedview37"
   showgrid="false"
   inkscape:zoom="0.53055288"
   inkscape:cx="222.4095"
   inkscape:cy="222.4095"
   inkscape:window-x="0"
   inkscape:window-y="0"
   inkscape:window-maximized="1"
   inkscape:current-layer="Capa_1" />

<g
   id="g6">
</g>
<g
   id="g8">
</g>
<g
   id="g10">
</g>
<g
   id="g12">
</g>
<g
   id="g14">
</g>
<g
   id="g16">
</g>
<g
   id="g18">
</g>
<g
   id="g20">
</g>
<g
   id="g22">
</g>
<g
   id="g24">
</g>
<g
   id="g26">
</g>
<g
   id="g28">
</g>
<g
   id="g30">
</g>
<g
   id="g32">
</g>
<g
   id="g34">
</g>
<path
   style="fill:#ffffff;stroke-width:1.8848263"
   d="m 789.16324,298.20069 c -8.75764,-3.81646 -36.89884,-31.28311 -40.76823,-39.791 -1.88589,-4.14662 -3.42888,-10.08382 -3.42888,-13.19379 0,-12.65817 5.92778,-19.84641 53.62411,-65.0265 l 46.76028,-44.29342 -112.90406,-0.94241 -112.90406,-0.94242 -5.99281,-4.27458 c -12.2014,-8.70309 -14.66772,-15.58481 -15.38719,-42.934574 -0.72185,-27.43969 1.09148,-37.31439 8.4603,-46.07174 9.89908,-11.76439 5.03643,-11.32697 125.91567,-11.32697 67.82623,0 110.35594,-0.68462 110.35594,-1.77646 0,-0.97705 -20.72985,-21.4374501 -46.06631,-45.46756 -46.97409,-44.552074 -52.00638,-50.711404 -51.90326,-63.527661 0.0228,-2.829821 1.59445,-8.537818 3.49263,-12.684436 3.8469,-8.403619 30.39312,-34.701299 40.1327,-39.756959 8.20354,-4.25831 25.06876,-4.27035 33.24951,-0.0237 8.32659,4.32231 208.81492,193.991596 212.41392,200.951336 3.3322,6.44379 3.6658,19.60532 0.7116,28.07959 -2.6269,7.535394 -204.41699,199.033784 -213.91018,203.000284 -7.82796,3.27074 -24.34962,3.2723 -31.85168,0.004 z"
   id="path3746"
   inkscape:connector-curvature="0" /><path
   style="fill:#ffffff;stroke-width:1.6318332"
   d="m 188.3719,409.86154 c -9.01011,-5.96801 -28.54149,-26.32216 -30.69603,-31.98902 -2.54899,-6.70437 -1.74601,-15.7389 1.93565,-21.77831 3.90955,-6.41326 21.52952,-24.26581 58.29564,-59.06507 l 25.05974,-23.71912 -98.49225,-1.19387 -98.492207,-1.19387 -5.337037,-4.04105 C 30.616914,259.2879 29.718934,256.51152 29.109741,231.21521 c -0.651997,-27.07402 0.78743,-33.90784 8.772314,-41.64753 l 5.833264,-5.65412 37.849803,-1.07392 c 20.817398,-0.59065 64.836248,-1.1414 97.819698,-1.22387 32.98338,-0.0825 59.96981,-0.7799 59.96981,-1.54982 0,-0.76992 -17.20725,-18.29485 -38.23846,-38.94429 -21.03111,-20.64943 -39.75364,-40.02985 -41.6056,-43.067591 -3.68509,-6.044604 -4.35084,-14.994387 -1.64482,-22.111747 0.95403,-2.509261 8.56282,-11.313299 16.90848,-19.564529 11.92517,-11.790345 16.70337,-15.414096 22.318,-16.925973 9.39538,-2.529911 20.34993,-0.893755 26.61172,3.974709 10.84166,8.429212 96.30435,88.768231 164.55546,154.690041 l 17.54222,16.94351 0.0234,11.35198 0.0234,11.35199 -35.51534,35.09429 c -54.88643,54.23558 -142.61199,136.07433 -150.2366,140.15487 -1.85466,0.99261 -8.06772,1.80474 -13.80658,1.80474 -8.89202,0 -11.5406,-0.73266 -17.91728,-4.95641 z"
   id="path3748"
   inkscape:connector-curvature="0" /></svg>