<?xml version="1.0" encoding="UTF-8" standalone="no"?>
<!-- Generator: Adobe Illustrator 19.0.0, SVG Export Plug-In . SVG Version: 6.00 Build 0)  -->

<svg
   xmlns:dc="http://purl.org/dc/elements/1.1/"
   xmlns:cc="http://creativecommons.org/ns#"
   xmlns:rdf="http://www.w3.org/1999/02/22-rdf-syntax-ns#"
   xmlns:svg="http://www.w3.org/2000/svg"
   xmlns="http://www.w3.org/2000/svg"
   xmlns:sodipodi="http://sodipodi.sourceforge.net/DTD/sodipodi-0.dtd"
   xmlns:inkscape="http://www.inkscape.org/namespaces/inkscape"
   version="1.1"
   id="Capa_1"
   x="0px"
   y="0px"
   viewBox="0 0 58 46"
   xml:space="preserve"
   sodipodi:docname="picture.svg"
   width="58"
   height="46"
   inkscape:version="0.92.4 (5da689c313, 2019-01-14)"><metadata
   id="metadata45"><rdf:RDF><cc:Work
       rdf:about=""><dc:format>image/svg+xml</dc:format><dc:type
         rdf:resource="http://purl.org/dc/dcmitype/StillImage" /><dc:title></dc:title></cc:Work></rdf:RDF></metadata><defs
   id="defs43" /><sodipodi:namedview
   pagecolor="#ffffff"
   bordercolor="#666666"
   borderopacity="1"
   objecttolerance="10"
   gridtolerance="10"
   guidetolerance="10"
   inkscape:pageopacity="0"
   inkscape:pageshadow="2"
   inkscape:window-width="1600"
   inkscape:window-height="842"
   id="namedview41"
   showgrid="false"
   inkscape:snap-page="true"
   fit-margin-top="0"
   fit-margin-left="0"
   fit-margin-right="0"
   fit-margin-bottom="0"
   inkscape:zoom="4.0689655"
   inkscape:cx="28.754237"
   inkscape:cy="16.855932"
   inkscape:window-x="0"
   inkscape:window-y="0"
   inkscape:window-maximized="1"
   inkscape:current-layer="Capa_1" />
<g
   id="g8"
   transform="translate(0,-6)">
	<path
   d="M 57,6 H 1 C 0.448,6 0,6.447 0,7 v 44 c 0,0.553 0.448,1 1,1 h 56 c 0.552,0 1,-0.447 1,-1 V 7 C 58,6.447 57.552,6 57,6 Z M 56,50 H 2 V 8 h 54 z"
   id="path2"
   inkscape:connector-curvature="0" />
	<path
   d="m 16,28.138 c 3.071,0 5.569,-2.498 5.569,-5.568 C 21.569,19.498 19.071,17 16,17 c -3.071,0 -5.569,2.498 -5.569,5.569 0,3.071 2.498,5.569 5.569,5.569 z M 16,19 c 1.968,0 3.569,1.602 3.569,3.569 0,1.967 -1.601,3.569 -3.569,3.569 -1.968,0 -3.569,-1.601 -3.569,-3.568 C 12.431,20.603 14.032,19 16,19 Z"
   id="path4"
   inkscape:connector-curvature="0" />
	<path
   d="m 7,46 c 0.234,0 0.47,-0.082 0.66,-0.249 L 23.973,31.389 34.275,41.69 c 0.391,0.391 1.023,0.391 1.414,0 0.391,-0.391 0.391,-1.023 0,-1.414 l -4.807,-4.807 9.181,-10.054 11.261,10.323 c 0.407,0.373 1.04,0.345 1.413,-0.062 0.373,-0.407 0.346,-1.04 -0.062,-1.413 l -12,-11 c -0.196,-0.179 -0.457,-0.268 -0.72,-0.262 -0.265,0.012 -0.515,0.129 -0.694,0.325 L 29.467,34.053 24.724,29.31 C 24.35,28.937 23.752,28.918 23.356,29.266 L 6.339,44.249 C 5.924,44.614 5.884,45.246 6.249,45.661 6.447,45.886 6.723,46 7,46 Z"
   id="path6"
   inkscape:connector-curvature="0" />
</g>
<g
   id="g10"
   transform="translate(-0.24576271,0.1440678)">
</g>
<g
   id="g12"
   transform="translate(-0.24576271,0.1440678)">
</g>
<g
   id="g14"
   transform="translate(-0.24576271,0.1440678)">
</g>
<g
   id="g16"
   transform="translate(-0.24576271,0.1440678)">
</g>
<g
   id="g18"
   transform="translate(-0.24576271,0.1440678)">
</g>
<g
   id="g20"
   transform="translate(-0.24576271,0.1440678)">
</g>
<g
   id="g22"
   transform="translate(-0.24576271,0.1440678)">
</g>
<g
   id="g24"
   transform="translate(-0.24576271,0.1440678)">
</g>
<g
   id="g26"
   transform="translate(-0.24576271,0.1440678)">
</g>
<g
   id="g28"
   transform="translate(-0.24576271,0.1440678)">
</g>
<g
   id="g30"
   transform="translate(-0.24576271,0.1440678)">
</g>
<g
   id="g32"
   transform="translate(-0.24576271,0.1440678)">
</g>
<g
   id="g34"
   transform="translate(-0.24576271,0.1440678)">
</g>
<g
   id="g36"
   transform="translate(-0.24576271,0.1440678)">
</g>
<g
   id="g38"
   transform="translate(-0.24576271,0.1440678)">
</g>
</svg>